<?xml version="1.0" encoding="UTF-8"?>
<svg width="290" height="40" enable-background="new 0 0 290 40" version="1.1" viewBox="0 0 290 40" xml:space="preserve"
  xmlns="http://www.w3.org/2000/svg">
  <style type="text/css">
	.st0{fill:#F29526;}
	.st1{fill:#1A171B;}
  </style>
  <path class="st0" d="M26,34.4H15c-3.7,0-6.8-3.1-6.8-6.9v-10H4v-5.3h4.2V3.6h5.2v8.5H26v5.3H13.4v10    c0,0.8,0.7,1.6,1.5,1.6h11V34.4z"/>
  <path class="st0" d="m57.2 34.4h-19.4c-3.8 0-6.8-3.1-6.8-6.9v-8.5c0-3.8 3.1-6.9 6.8-6.9h14.1v-8.5h5.3v30.8zm-19.4-17c-0.8 0-1.5 0.7-1.5 1.6v8.5c0 0.9 0.7 1.6 1.5 1.6h14.1v-11.7h-14.1z"/>
  <path class="st0" d="M92.6,34.4h-5.3V19c0-0.8-0.7-1.6-1.5-1.6h-4.2c-0.8,0-1.5,0.7-1.5,1.6v15.4h-5.3V19    c0-0.8-0.7-1.6-1.5-1.6H69c-0.8,0-1.5,0.7-1.5,1.6v15.4h-5.3V19c0-3.8,3.1-6.9,6.8-6.9h4.2c1.5,0,3,0.5,4.2,1.5    c1.2-0.9,2.7-1.5,4.2-1.5h4.2c3.8,0,6.8,3.1,6.8,6.9V34.4z"/>
  <path class="st1" d="m113.3 34.4h-15.9v-3.4h15.9c1.5 0 2.7-1.2 2.7-2.7s-1.2-2.7-2.7-2.7h-10.3c-3.3 0-6-2.7-6-6s2.7-6 6-6h15.9v3.3h-15.9c-1.5 0-2.7 1.2-2.7 2.7s1.2 2.7 2.7 2.7h10.3c3.3 0 6 2.7 6 6 0 3.4-2.7 6.1-6 6.1z"/>
  <path class="st1" d="m136.3 34.4h-3.3v-8.7h-3.5c-3.3 0-6-2.7-6-6v-6h3.3v6c0 1.5 1.2 2.7 2.7 2.7h10.3c1.5 0 2.7-1.2 2.7-2.7v-6h3.3v6c0 3.3-2.7 6-6 6h-3.5v8.7z"/>
  <path class="st1" d="m166.3 34.4h-15.9v-3.4h15.9c1.5 0 2.7-1.2 2.7-2.7s-1.2-2.7-2.7-2.7h-10.3c-3.3 0-6-2.7-6-6s2.7-6 6-6h15.9v3.3h-15.9c-1.5 0-2.7 1.2-2.7 2.7s1.2 2.7 2.7 2.7h10.3c3.3 0 6 2.7 6 6 0 3.4-2.7 6.1-6 6.1z"/>
  <path class="st1" d="m196 34.4h-10.3c-3.3 0-5.9-2.7-5.9-6v-11.5h-4.3v-3.3h4.3v-8.7h3.3v8.7h12.9v3.3h-13v11.4c0 1.5 1.2 2.7 2.7 2.7h10.3v3.4z"/>
  <path class="st1" d="m225.6 34.4h-18.9c-3.4 0-6-2.7-6-6v-8.7c0-3.3 2.7-6 6-6h12.9c3.3 0 6 2.7 6 6v6h-21.6v2.7c0 1.5 1.2 2.7 2.7 2.7h18.9v3.3zm-21.7-12.1h18.3v-2.7c0-1.5-1.2-2.7-2.7-2.7h-12.9c-1.5 0-2.7 1.2-2.7 2.7v2.7z"/>
  <path class="st1" d="m259.5 34.4h-3.3v-14.8c0-1.5-1.2-2.7-2.7-2.7h-4.3c-1.4 0-2.7 1.2-2.7 2.7v14.8h-3.3v-14.8c0-1.5-1.2-2.7-2.7-2.7h-4.3c-1.5 0-2.7 1.2-2.7 2.7v14.8h-3.3v-14.8c0-3.3 2.7-6 6-6h4.3c1.5 0 2.9 0.6 4.3 1.8 1.5-1.3 2.8-1.8 4.3-1.8h4.3c3.3 0 6 2.7 6 6v14.8z"/>
  <path class="st1" d="m280 34.4h-15.9v-3.4h15.9c1.5 0 2.7-1.2 2.7-2.7s-1.2-2.7-2.7-2.7h-10.3c-3.3 0-6-2.7-6-6s2.7-6 6-6h15.9v3.3h-15.9c-1.5 0-2.7 1.2-2.7 2.7s1.2 2.7 2.7 2.7h10.3c3.3 0 6 2.7 6 6 0 3.4-2.7 6.1-6 6.1z"/>
</svg>
